<svg xmlns="http://www.w3.org/2000/svg" viewBox="0 0 283.46 283.46">
  <defs>
    <style>
      .cls-1 {
        fill: none;
      }

      .cls-2 {
        fill: #f93;
      }

      .cls-3 {
        fill: #138808;
      }

      .cls-4 {
        fill: #fff;
      }

      .cls-5 {
        fill: #008;
      }
    </style>
  </defs>
  <g id="Layer_2" data-name="Layer 2">
    <path class="cls-1" d="M283.46,141.67a141.69,141.69,0,0,1-16.83,67.12C228.61,278.63,141.88,304,73,265.5a143.84,143.84,0,0,1-57.13-58.61A141.77,141.77,0,0,1,141.68,0C219.9,0,283.46,63.42,283.46,141.67Z"/>
  </g>
  <g id="Layer_1" data-name="Layer 1">
    <g>
      <g>
        <path class="cls-2" d="M83.6,237.68a2.49,2.49,0,0,1-2.5-2.5v-4.42a2.49,2.49,0,0,1,2.18-2.47c5.91-.78,10.19-1.35,11.72-2.81,1.34-1.27,1.58-4.3,1.58-10.19V194.93c0-2.45-.35-3.42-2.85-8-5.27-9.79-10.71-19.89-19.4-35-5.92-10.33-6.9-11.5-16.56-12.49A2.5,2.5,0,0,1,55.53,137v-4.42a2.5,2.5,0,0,1,2.5-2.5H96.86a2.49,2.49,0,0,1,2.5,2.5V137a2.5,2.5,0,0,1-2.15,2.48c-5.91.82-7.21,1.64-7.49,1.93a14,14,0,0,0,1.46,3.42c2.6,4.76,5.33,9.86,8.08,15,3.44,6.43,7,13,10.35,19.15,5.73-10.76,13.23-25.13,16.92-32.38,1.78-3.87,1.81-4.89,1.66-5.14-.24-.42-1.73-1.23-9-2a2.5,2.5,0,0,1-2.25-2.49v-4.42a2.5,2.5,0,0,1,2.5-2.5h35.68a2.5,2.5,0,0,1,2.5,2.5V137a2.52,2.52,0,0,1-2.22,2.49c-10.33,1.18-11.48,2.44-17.42,11.94-6,9.73-11.22,19.24-17.26,30.24l-3.35,6.11a14.32,14.32,0,0,0-2.06,8.11v19.41c0,11.43,0,11.65,13.84,13a2.5,2.5,0,0,1,2.26,2.48v4.42a2.49,2.49,0,0,1-2.5,2.5Z"/>
        <path d="M155.12,132.57V137c-11.05,1.27-13,3-19.26,13.11-7.11,11.52-13,22.41-20.68,36.46a16.73,16.73,0,0,0-2.37,9.32v19.41c0,13.11,1.42,14.05,16.1,15.47v4.42H83.6v-4.42c14.37-1.89,15.48-2.21,15.48-15.47V194.93c0-3.16-.64-4.58-3.16-9.16-5.53-10.26-10.9-20.2-19.42-35C70.34,140,68.76,138.1,58,137v-4.42H96.86V137c-11.36,1.58-10.73,3.63-7.89,9,6.63,12.16,14,26.36,20.68,38.2,5.69-10.57,14.68-27.78,19.1-36.46,3.63-7.9,3.16-9.47-9.31-10.74v-4.42h35.68m0-5H119.44a5,5,0,0,0-5,5V137a5,5,0,0,0,4.5,5,50.42,50.42,0,0,1,6.43.94c-.22.6-.57,1.45-1.12,2.64-3.25,6.38-9.37,18.14-14.67,28.15-2.68-4.91-5.43-10-8.11-15s-5.48-10.24-8.09-15c-.11-.2-.27-.5-.44-.84a44.78,44.78,0,0,1,4.61-.84,5,5,0,0,0,4.31-4.95v-4.42a5,5,0,0,0-5-5H58a5,5,0,0,0-5,5V137a5,5,0,0,0,4.49,5c8.46.87,8.87,1.18,14.64,11.24,8.69,15.12,14.11,25.19,19.36,34.93l0,.05c2.46,4.45,2.54,4.93,2.54,6.74v20.36c0,2.09,0,7.62-.8,8.38-1,.9-5.93,1.56-10.33,2.14a5,5,0,0,0-4.35,4.95v4.42a5,5,0,0,0,5,5h45.31a5,5,0,0,0,5-5v-4.42a5,5,0,0,0-4.52-5c-3.52-.34-9.43-.92-10.62-2-1-.9-1-6.4-1-8.47V195.88a11.91,11.91,0,0,1,1.78-7l3.32-6c6-11,11.23-20.46,17.2-30.15,5.62-9,6.27-9.7,15.58-10.76a5,5,0,0,0,4.43-5v-4.42a5,5,0,0,0-5-5Z"/>
      </g>
      <g>
        <path class="cls-3" d="M168.33,237.68a2.49,2.49,0,0,1-2.5-2.5v-2.73A2.51,2.51,0,0,1,168.1,230c2-.18,5.26-.49,5.92-1.21s.59-3.61.59-5.76V184.05c0-2.5-.09-5.15-.8-5.86s-3.25-1-5.73-1.21a2.5,2.5,0,0,1-2.25-2.49v-2.73a2.5,2.5,0,0,1,2.5-2.5h27.13c14.23,0,23.54,2.83,30.21,9.18,6,5.82,9.08,13.66,9.08,22.69,0,11.87-4.69,21.93-13.2,28.34-7.47,5.61-17.12,8.21-30.38,8.21Zm20-59.14a12.37,12.37,0,0,0-.27,3.46v40.21c0,5.52,1.56,6.86,7.94,6.86,15.28,0,24.05-9.68,24.05-26.57,0-10.05-3.41-17.21-10.12-21.29-3.79-2.38-8.81-3.53-15.39-3.53-5,0-6.14.81-6.15.81Z"/>
        <path d="M195.46,171.76c13.76,0,22.44,2.73,28.49,8.49,4.78,4.68,8.3,11.51,8.3,20.88,0,11.42-4.69,20.69-12.2,26.35s-16.88,7.7-28.88,7.7H168.33v-2.73c8.39-.78,8.78-1.46,8.78-9.46V184.05c0-8.39-1.17-8.78-8.78-9.56v-2.73h27.13m.58,59.81c17.57,0,26.55-12,26.55-29.07,0-10.64-3.62-18.74-11.32-23.42-4.49-2.83-10.15-3.9-16.69-3.9-4.39,0-6.73.58-7.71,1.36-.88.59-1.27,1.66-1.27,5.46v40.21c0,7.32,3.13,9.36,10.44,9.36m-.58-64.81H168.33a5,5,0,0,0-5,5v2.73a5,5,0,0,0,4.49,5,36.55,36.55,0,0,1,4.08.56,24,24,0,0,1,.21,4V223c0,.93,0,2.88-.12,3.94a36.91,36.91,0,0,1-4.12.54,5,5,0,0,0-4.54,5v2.73a5,5,0,0,0,5,5h22.84c13.83,0,24-2.76,31.88-8.7,9-6.8,14.2-17.86,14.2-30.35,0-9.72-3.39-18.18-9.8-24.45l0-.05c-7.17-6.83-17-9.87-31.94-9.87Zm-4.82,13.67a23.82,23.82,0,0,1,3.94-.25c6.09,0,10.68,1,14,3.13l.07,0c6,3.65,8.92,9.91,8.92,19.15,0,9-2.8,24.07-21.55,24.07-3.56,0-4.53-.58-4.74-.76s-.7-1.38-.7-3.6V182c0-.67,0-1.18,0-1.57Z"/>
      </g>
      <g>
        <path class="cls-4" d="M154.19,237.68a2.49,2.49,0,0,1-2.5-2.5v-2.73a2.5,2.5,0,0,1,2.19-2.48,16.59,16.59,0,0,0,4.11-.82,7.65,7.65,0,0,0-.39-1.3c-.57-1.71-1.24-3.54-2-5.66s-1.75-4.75-2.7-7.53H135.36l-1.29,3.52c-.87,2.39-1.7,4.65-2.5,7-.94,2.78-.78,3.44-.74,3.55.55.61,4.44,1.08,5.9,1.26a2.5,2.5,0,0,1,2.2,2.48v2.73a2.49,2.49,0,0,1-2.5,2.5H113.89a2.49,2.49,0,0,1-2.5-2.5v-2.73a2.49,2.49,0,0,1,2.18-2.48c5.23-.66,6-.76,9.11-8.67l20.2-51.24a2.51,2.51,0,0,1,1.87-1.54l3.12-.58a2.46,2.46,0,0,1,2.81,1.59c5.19,14.1,11.24,30.63,19,52,2.85,7.74,3.07,7.77,8.86,8.42a2.5,2.5,0,0,1,2.22,2.48v2.73a2.49,2.49,0,0,1-2.5,2.5Zm-4.42-32-5.4-15.18c-1.76,4.73-3.76,10.08-5.69,15.18Z"/>
        <path d="M148.33,170.39c6.15,16.69,12.88,35.13,19,52,3.12,8.49,4,9.27,10.93,10v2.73h-24.1v-2.73c6.34-.78,7.12-1.75,5.75-5.46s-3.22-8.69-5.26-14.83H133.6c-1.56,4.39-3,8.19-4.39,12.19-2.15,6.35-.78,7.13,7.22,8.1v2.73H113.89v-2.73c6.15-.78,7.71-1.46,11.12-10.24L145.21,171l3.12-.59m-13.27,37.77h18.25l-8.88-25c-3.12,8.39-6.44,17.27-9.37,25m13.28-42.77a4.88,4.88,0,0,0-.93.09l-3.12.58a5,5,0,0,0-3.73,3.08l-20.2,51.23c-.87,2.25-2.14,5.3-3.15,6.17-.46.4-1.42.63-3.95,1a5,5,0,0,0-4.37,5v2.73a5,5,0,0,0,5,5h22.54a5,5,0,0,0,5-5v-2.73a5,5,0,0,0-4.4-5c-1.45-.18-2.59-.35-3.42-.5l.33-1c.79-2.3,1.61-4.55,2.48-6.93.23-.61.46-1.24.69-1.87h14c.75,2.13,1.47,4.09,2.13,5.89.58,1.58,1.1,3,1.55,4.28l-1.2.16a5,5,0,0,0-4.39,5v2.73a5,5,0,0,0,5,5h24.1a5,5,0,0,0,5-5v-2.73a5,5,0,0,0-4.44-5c-1.07-.12-3.59-.4-4.07-.85-.81-.73-2.06-4.13-2.73-5.95-7.77-21.35-13.82-37.88-19-52a5,5,0,0,0-4.68-3.28Zm-6,37.77c.67-1.8,1.35-3.6,2-5.38l1.91,5.38Z"/>
      </g>
    </g>
    <g id="_273238ff" data-name="#273238ff">
      <path d="M105.28,68.67a10.85,10.85,0,0,1,6.94.1l86.85,25.64c.59.19,1.31.39,1.56,1a18,18,0,0,1,0,3c-2.52.94-5.12,1.66-7.67,2.52q-40.12,12.9-80.23,25.9a9.31,9.31,0,0,1-5.8.48Q75.33,118,43.69,108.58a.46.46,0,1,1,0-.92Q74,97.85,104.29,88.09a8.94,8.94,0,0,0,7.67.48,3.71,3.71,0,0,0,2.26-2,2.23,2.23,0,0,0-.92-2.4,7.57,7.57,0,0,0-5-1.33,6.91,6.91,0,0,0-4.53,1.66c-.47.39-.52,1.21-1.17,1.36L39.14,106.25a9.22,9.22,0,0,0-1.69.61,4.12,4.12,0,0,0-.07,1.11c.1,5.28.12,10.57.22,15.85a8.69,8.69,0,0,1,5.53,3.91,7.85,7.85,0,0,1-1,9.28A11.46,11.46,0,0,1,39.54,139a9.86,9.86,0,0,1,0,1.33A12.43,12.43,0,0,1,43.31,144c2.31,3.59,3.34,7.83,3.94,12a46.56,46.56,0,0,1,.32,9.66.6.6,0,0,1-.45.64,27.7,27.7,0,0,1-14,1.93,23.84,23.84,0,0,1-7.1-1.89,43.06,43.06,0,0,1,.05-10.52,29,29,0,0,1,3.63-11.72,12.53,12.53,0,0,1,3.75-3.82,5,5,0,0,1-.16-1.34,8.45,8.45,0,0,1-3.5-2.93,7.88,7.88,0,0,1,4.07-11.84c.32-.17,1-.15,1-.62,0-5.66-.15-11.32-.2-17,0-.31-.06-.66-.42-.7-5.94-1.79-11.93-3.45-17.88-5.27-.05-.93,0-1.86-.07-2.79a11.86,11.86,0,0,1,3.85-1.74Q62.7,82.41,105.28,68.67Z"/>
      <path d="M159.55,115.07a.9.9,0,0,1,1,.55,59.12,59.12,0,0,1,7.21,23.78.92.92,0,0,1-.91,1.13,97.63,97.63,0,0,0-25.68,5.39,105.46,105.46,0,0,0-31,17.65,1,1,0,0,1-1.46,0,108.83,108.83,0,0,0-23.78-14A97.38,97.38,0,0,0,51.66,142a1,1,0,0,1-1-1.12,59.24,59.24,0,0,1,6.17-23.1,5,5,0,0,1,.8-1.31,1.22,1.22,0,0,1,1.1,0q24.18,7.17,48.36,14.29a8.17,8.17,0,0,0,5.14-.4C128,125.24,143.75,120.12,159.55,115.07Z"/>
    </g>
    <g>
      <circle class="cls-5" cx="145.26" cy="199.96" r="22.8"/>
      <circle class="cls-4" cx="145.26" cy="199.96" r="19.95"/>
      <circle class="cls-5" cx="145.26" cy="199.96" r="3.99"/>
      <g id="d">
        <g id="c">
          <g id="b">
            <g id="a">
              <circle class="cls-5" cx="165.04" cy="202.57" r="1"/>
              <path class="cls-5" d="M145.26,219.91l.68-12-.68-5.7-.68,5.7Z"/>
            </g>
            <g id="a-2" data-name="a">
              <circle class="cls-5" cx="163.69" cy="207.6" r="1"/>
              <path class="cls-5" d="M140.1,219.23l3.76-11.38.81-5.68-2.14,5.32Z"/>
            </g>
          </g>
          <g id="b-2" data-name="b">
            <g id="a-3" data-name="a">
              <circle class="cls-5" cx="161.08" cy="212.11" r="1"/>
              <path class="cls-5" d="M135.29,217.24l6.57-10,2.26-5.27-3.44,4.59Z"/>
            </g>
            <g id="a-4" data-name="a">
              <circle class="cls-5" cx="157.4" cy="215.79" r="1"/>
              <path class="cls-5" d="M131.16,214.07l8.94-8,3.55-4.51-4.52,3.54Z"/>
            </g>
          </g>
        </g>
        <g id="c-2" data-name="c">
          <g id="b-3" data-name="b">
            <g id="a-5" data-name="a">
              <circle class="cls-5" cx="152.89" cy="218.39" r="1"/>
              <path class="cls-5" d="M128,209.94l10.7-5.4,4.6-3.44L138,203.36Z"/>
            </g>
            <g id="a-6" data-name="a">
              <circle class="cls-5" cx="147.86" cy="219.74" r="1"/>
              <path class="cls-5" d="M126,205.13l11.74-2.44,5.33-2.14-5.68.82Z"/>
            </g>
          </g>
          <g id="b-4" data-name="b">
            <g id="a-7" data-name="a">
              <circle class="cls-5" cx="142.66" cy="219.74" r="1"/>
              <path class="cls-5" d="M125.31,200l12,.69L143,200l-5.7-.68Z"/>
            </g>
            <g id="a-8" data-name="a">
              <circle class="cls-5" cx="137.63" cy="218.39" r="1"/>
              <path class="cls-5" d="M126,194.8l11.39,3.76,5.68.81-5.33-2.13Z"/>
            </g>
          </g>
        </g>
      </g>
      <g id="d-2" data-name="d">
        <g id="c-3" data-name="c">
          <g id="b-5" data-name="b">
            <g id="a-9" data-name="a">
              <circle class="cls-5" cx="133.12" cy="215.79" r="1"/>
              <path class="cls-5" d="M128,190l10,6.58,5.28,2.25-4.6-3.44Z"/>
            </g>
            <g id="a-10" data-name="a">
              <circle class="cls-5" cx="129.44" cy="212.11" r="1"/>
              <path class="cls-5" d="M131.16,185.86l8,8.94,4.52,3.55-3.55-4.51Z"/>
            </g>
          </g>
          <g id="b-6" data-name="b">
            <g id="a-11" data-name="a">
              <circle class="cls-5" cx="126.83" cy="207.6" r="1"/>
              <path class="cls-5" d="M135.29,182.69l5.39,10.71,3.44,4.59-2.26-5.28Z"/>
            </g>
            <g id="a-12" data-name="a">
              <circle class="cls-5" cx="125.48" cy="202.57" r="1"/>
              <path class="cls-5" d="M140.1,180.7l2.43,11.73,2.14,5.33-.81-5.68Z"/>
            </g>
          </g>
        </g>
        <g id="c-4" data-name="c">
          <g id="b-7" data-name="b">
            <g id="a-13" data-name="a">
              <circle class="cls-5" cx="125.48" cy="197.36" r="1"/>
              <path class="cls-5" d="M145.26,180l-.68,12,.68,5.7.68-5.7Z"/>
            </g>
            <g id="a-14" data-name="a">
              <circle class="cls-5" cx="126.83" cy="192.33" r="1"/>
              <path class="cls-5" d="M150.42,180.7l-3.76,11.38-.81,5.68,2.14-5.33Z"/>
            </g>
          </g>
          <g id="b-8" data-name="b">
            <g id="a-15" data-name="a">
              <circle class="cls-5" cx="129.44" cy="187.82" r="1"/>
              <path class="cls-5" d="M155.23,182.69l-6.57,10L146.4,198l3.44-4.59Z"/>
            </g>
            <g id="a-16" data-name="a">
              <circle class="cls-5" cx="133.12" cy="184.14" r="1"/>
              <path class="cls-5" d="M159.36,185.86l-8.94,8-3.55,4.51,4.52-3.55Z"/>
            </g>
          </g>
        </g>
      </g>
      <g id="d-3" data-name="d">
        <g id="c-5" data-name="c">
          <g id="b-9" data-name="b">
            <g id="a-17" data-name="a">
              <circle class="cls-5" cx="137.63" cy="181.53" r="1"/>
              <path class="cls-5" d="M162.53,190l-10.7,5.39-4.6,3.44,5.28-2.25Z"/>
            </g>
            <g id="a-18" data-name="a">
              <circle class="cls-5" cx="142.66" cy="180.19" r="1"/>
              <path class="cls-5" d="M164.53,194.8l-11.74,2.44-5.33,2.13,5.68-.81Z"/>
            </g>
          </g>
          <g id="b-10" data-name="b">
            <g id="a-19" data-name="a">
              <circle class="cls-5" cx="147.86" cy="180.19" r="1"/>
              <path class="cls-5" d="M165.21,200l-12-.68-5.7.68,5.7.69Z"/>
            </g>
            <g id="a-20" data-name="a">
              <circle class="cls-5" cx="152.89" cy="181.53" r="1"/>
              <path class="cls-5" d="M164.53,205.13l-11.39-3.76-5.68-.82,5.33,2.14Z"/>
            </g>
          </g>
        </g>
        <g id="c-6" data-name="c">
          <g id="b-11" data-name="b">
            <g id="a-21" data-name="a">
              <circle class="cls-5" cx="157.4" cy="184.14" r="1"/>
              <path class="cls-5" d="M162.53,209.94l-10-6.58-5.28-2.26,4.6,3.44Z"/>
            </g>
            <g id="a-22" data-name="a">
              <circle class="cls-5" cx="161.08" cy="187.82" r="1"/>
              <path class="cls-5" d="M159.36,214.07l-8-8.95-4.52-3.54,3.55,4.51Z"/>
            </g>
          </g>
          <g id="b-12" data-name="b">
            <g id="a-23" data-name="a">
              <circle class="cls-5" cx="163.69" cy="192.33" r="1"/>
              <path class="cls-5" d="M155.23,217.24l-5.39-10.71-3.44-4.59,2.26,5.27Z"/>
            </g>
            <g id="a-24" data-name="a">
              <circle class="cls-5" cx="165.04" cy="197.36" r="1"/>
              <path class="cls-5" d="M150.42,219.23,148,207.49l-2.14-5.32.81,5.68Z"/>
            </g>
          </g>
        </g>
      </g>
    </g>
  </g>
</svg>
