<?xml version="1.0" encoding="utf-8"?>
<!-- Generator: Adobe Illustrator 24.2.0, SVG Export Plug-In . SVG Version: 6.00 Build 0)  -->
<svg version="1.1" id="Layer_1" xmlns="http://www.w3.org/2000/svg" xmlns:xlink="http://www.w3.org/1999/xlink" x="0px" y="0px"
	 viewBox="0 0 283.5 283.5" style="enable-background:new 0 0 283.5 283.5;" xml:space="preserve">
<style type="text/css">
	.st0{fill:#D7D7D7;}
	.st1{fill:#FF9933;}
	.st2{fill:#138808;}
	.st3{fill:#FFFFFF;}
	.st4{fill:#000088;}
</style>
<g id="Layer_2_1_">
	<path class="st0" d="M283.5,141.7c0,23.4-5.8,46.5-16.8,67.1c-38,69.8-124.8,95.2-193.6,56.7c-24.3-13.6-44.2-34-57.1-58.6
		c-36-69.5-8.7-155.1,60.8-191C96.8,5.5,119.1,0,141.7,0C219.9,0,283.5,63.4,283.5,141.7z"/>
</g>
<g id="Layer_1_1_">
	<g>
		<g>
			<path class="st1" d="M83.6,237.7c-1.4,0-2.5-1.1-2.5-2.5c0,0,0,0,0,0v-4.4c0-1.3,0.9-2.3,2.2-2.5c5.9-0.8,10.2-1.4,11.7-2.8
				c1.3-1.3,1.6-4.3,1.6-10.2v-20.4c0-2.4-0.3-3.4-2.8-8c-5.3-9.8-10.7-19.9-19.4-35c-5.9-10.3-6.9-11.5-16.6-12.5
				c-1.3-0.1-2.2-1.2-2.2-2.4v-4.4c0-1.4,1.1-2.5,2.5-2.5h38.8c1.4,0,2.5,1.1,2.5,2.5c0,0,0,0,0,0v4.4c0,1.2-0.9,2.3-2.2,2.5
				c-5.9,0.8-7.2,1.6-7.5,1.9c0.3,1.2,0.8,2.3,1.5,3.4c2.6,4.8,5.3,9.9,8.1,15c3.4,6.4,7,13,10.3,19.1c5.7-10.8,13.2-25.1,16.9-32.4
				c1.8-3.9,1.8-4.9,1.7-5.1c-0.2-0.4-1.7-1.2-9-2c-1.3-0.1-2.3-1.2-2.3-2.5v-4.4c0-1.4,1.1-2.5,2.5-2.5h35.7c1.4,0,2.5,1.1,2.5,2.5
				v4.5c0,1.3-1,2.3-2.2,2.5c-10.3,1.2-11.5,2.4-17.4,11.9c-6,9.7-11.2,19.2-17.3,30.2l-3.3,6.1c-1.5,2.4-2.2,5.3-2.1,8.1v19.4
				c0,11.4,0,11.6,13.8,13c1.3,0.1,2.3,1.2,2.3,2.5v4.4c0,1.4-1.1,2.5-2.5,2.5c0,0,0,0,0,0L83.6,237.7z"/>
			<path d="M155.1,132.6v4.4c-11.1,1.3-13,3-19.3,13.1c-7.1,11.5-13,22.4-20.7,36.5c-1.7,2.8-2.5,6-2.4,9.3v19.4
				c0,13.1,1.4,14.1,16.1,15.5v4.4H83.6v-4.4c14.4-1.9,15.5-2.2,15.5-15.5v-20.4c0-3.2-0.6-4.6-3.2-9.2c-5.5-10.3-10.9-20.2-19.4-35
				C70.3,140,68.8,138.1,58,137v-4.4h38.9v4.4c-11.4,1.6-10.7,3.6-7.9,9c6.6,12.2,14,26.4,20.7,38.2c5.7-10.6,14.7-27.8,19.1-36.5
				c3.6-7.9,3.2-9.5-9.3-10.7v-4.4L155.1,132.6 M155.1,127.6h-35.7c-2.8,0-5,2.2-5,5v4.4c0,2.6,1.9,4.7,4.5,5
				c2.2,0.2,4.3,0.5,6.4,0.9c-0.2,0.6-0.6,1.4-1.1,2.6c-3.3,6.4-9.4,18.1-14.7,28.1c-2.7-4.9-5.4-10-8.1-15s-5.5-10.2-8.1-15
				c-0.1-0.2-0.3-0.5-0.4-0.8c1.5-0.4,3.1-0.6,4.6-0.8c2.5-0.3,4.3-2.5,4.3-4.9v-4.4c0-2.8-2.2-5-5-5H58c-2.8,0-5,2.2-5,5v4.3
				c0,2.6,1.9,4.7,4.5,5c8.5,0.9,8.9,1.2,14.6,11.2c8.7,15.1,14.1,25.2,19.4,34.9v0.1c2.5,4.4,2.5,4.9,2.5,6.7v20.4
				c0,2.1,0,7.6-0.8,8.4c-1,0.9-5.9,1.6-10.3,2.1c-2.5,0.3-4.3,2.4-4.3,4.9v4.4c0,2.8,2.2,5,5,5h45.3c2.8,0,5-2.2,5-5v-4.4
				c0-2.6-1.9-4.8-4.5-5c-3.5-0.3-9.4-0.9-10.6-2c-1-0.9-1-6.4-1-8.5v-19.4c-0.1-2.5,0.5-4.9,1.8-7l3.3-6c6-11,11.2-20.5,17.2-30.1
				c5.6-9,6.3-9.7,15.6-10.8c2.5-0.3,4.4-2.4,4.4-5v-4.4C160,129.8,157.8,127.6,155.1,127.6L155.1,127.6z"/>
		</g>
		<g>
			<path class="st2" d="M168.3,237.7c-1.4,0-2.5-1.1-2.5-2.5c0,0,0,0,0,0v-2.7c0-1.3,1-2.3,2.3-2.4c2-0.2,5.3-0.5,5.9-1.2
				s0.6-3.6,0.6-5.8v-39c0-2.5-0.1-5.1-0.8-5.9s-3.3-1-5.7-1.2c-1.3-0.1-2.3-1.2-2.3-2.5v-2.7c0-1.4,1.1-2.5,2.5-2.5h27.1
				c14.2,0,23.5,2.8,30.2,9.2c6,5.8,9.1,13.7,9.1,22.7c0,11.9-4.7,21.9-13.2,28.3c-7.5,5.6-17.1,8.2-30.4,8.2L168.3,237.7z
				 M188.3,178.5c-0.3,1.1-0.3,2.3-0.3,3.5v40.2c0,5.5,1.6,6.9,7.9,6.9c15.3,0,24.1-9.7,24.1-26.6c0-10.1-3.4-17.2-10.1-21.3
				c-3.8-2.4-8.8-3.5-15.4-3.5C189.5,177.7,188.4,178.5,188.3,178.5L188.3,178.5z"/>
			<path d="M195.5,171.8c13.8,0,22.4,2.7,28.5,8.5c4.8,4.7,8.3,11.5,8.3,20.9c0,11.4-4.7,20.7-12.2,26.4s-16.9,7.7-28.9,7.7h-22.8
				v-2.7c8.4-0.8,8.8-1.5,8.8-9.5v-38.9c0-8.4-1.2-8.8-8.8-9.6v-2.7L195.5,171.8 M196,231.6c17.6,0,26.6-12,26.6-29.1
				c0-10.6-3.6-18.7-11.3-23.4c-4.5-2.8-10.1-3.9-16.7-3.9c-4.4,0-6.7,0.6-7.7,1.4c-0.9,0.6-1.3,1.7-1.3,5.5v40.2
				C185.6,229.5,188.7,231.6,196,231.6 M195.5,166.8h-27.1c-2.8,0-5,2.2-5,5v2.7c0,2.6,1.9,4.7,4.5,5c1.4,0.1,2.7,0.3,4.1,0.6
				c0.2,1.3,0.3,2.7,0.2,4V223c0,0.9,0,2.9-0.1,3.9c-1.4,0.3-2.7,0.4-4.1,0.5c-2.6,0.2-4.6,2.4-4.5,5v2.7c0,2.8,2.2,5,5,5h22.8
				c13.8,0,24-2.8,31.9-8.7c9-6.8,14.2-17.9,14.2-30.4c0-9.7-3.4-18.2-9.8-24.4v-0.1C220.3,169.8,210.5,166.8,195.5,166.8
				L195.5,166.8z M190.6,180.4c1.3-0.2,2.6-0.3,3.9-0.3c6.1,0,10.7,1,14,3.1h0.1c6,3.6,8.9,9.9,8.9,19.1c0,9-2.8,24.1-21.6,24.1
				c-3.6,0-4.5-0.6-4.7-0.8s-0.7-1.4-0.7-3.6V182C190.6,181.3,190.6,180.8,190.6,180.4L190.6,180.4z"/>
		</g>
		<g>
			<path class="st3" d="M154.2,237.7c-1.4,0-2.5-1.1-2.5-2.5c0,0,0,0,0,0v-2.7c0-1.3,0.9-2.3,2.2-2.5c1.4-0.1,2.8-0.4,4.1-0.8
				c-0.1-0.4-0.2-0.9-0.4-1.3c-0.6-1.7-1.2-3.5-2-5.7s-1.8-4.8-2.7-7.5h-17.5l-1.3,3.5c-0.9,2.4-1.7,4.6-2.5,7
				c-0.9,2.8-0.8,3.4-0.7,3.6c0.6,0.6,4.4,1.1,5.9,1.3c1.3,0.2,2.2,1.2,2.2,2.5v2.7c0,1.4-1.1,2.5-2.5,2.5c0,0,0,0,0,0h-22.5
				c-1.4,0-2.5-1.1-2.5-2.5c0,0,0,0,0,0v-2.7c0-1.3,0.9-2.3,2.2-2.5c5.2-0.7,6-0.8,9.1-8.7l20.2-51.2c0.3-0.8,1-1.4,1.9-1.5l3.1-0.6
				c1.2-0.2,2.4,0.4,2.8,1.6c5.2,14.1,11.2,30.6,19,52c2.9,7.7,3.1,7.8,8.9,8.4c1.3,0.1,2.2,1.2,2.2,2.5v2.7c0,1.4-1.1,2.5-2.5,2.5
				c0,0,0,0,0,0L154.2,237.7z M149.8,205.7l-5.4-15.2c-1.8,4.7-3.8,10.1-5.7,15.2H149.8z"/>
			<path d="M148.3,170.4c6.1,16.7,12.9,35.1,19,52c3.1,8.5,4,9.3,10.9,10v2.7h-24.1v-2.7c6.3-0.8,7.1-1.8,5.8-5.5s-3.2-8.7-5.3-14.8
				h-21.1c-1.6,4.4-3,8.2-4.4,12.2c-2.2,6.4-0.8,7.1,7.2,8.1v2.7h-22.5v-2.7c6.2-0.8,7.7-1.5,11.1-10.2l20.2-51.1L148.3,170.4
				 M135.1,208.2h18.3l-8.9-25C141.3,191.6,138,200.5,135.1,208.2 M148.3,165.4c-0.3,0-0.6,0-0.9,0.1l-3.1,0.6
				c-1.7,0.3-3.1,1.5-3.7,3.1l-20.2,51.2c-0.9,2.3-2.1,5.3-3.2,6.2c-0.5,0.4-1.4,0.6-3.9,1c-2.5,0.3-4.4,2.5-4.4,5v2.7
				c0,2.8,2.2,5,5,5h22.5c2.8,0,5-2.2,5-5v-2.7c0-2.5-1.9-4.7-4.4-5c-1.4-0.2-2.6-0.4-3.4-0.5l0.3-1c0.8-2.3,1.6-4.6,2.5-6.9
				c0.2-0.6,0.5-1.2,0.7-1.9h14c0.8,2.1,1.5,4.1,2.1,5.9c0.6,1.6,1.1,3,1.6,4.3l-1.2,0.2c-2.5,0.3-4.4,2.5-4.4,5v2.7
				c0,2.8,2.2,5,5,5h24.1c2.8,0,5-2.2,5-5v-2.7c0-2.6-1.9-4.7-4.4-5c-1.1-0.1-3.6-0.4-4.1-0.9c-0.8-0.7-2.1-4.1-2.7-5.9
				c-7.8-21.4-13.8-37.9-19-52c-0.7-2-2.6-3.3-4.7-3.3L148.3,165.4z M142.3,203.2c0.7-1.8,1.4-3.6,2-5.4l1.9,5.4H142.3z"/>
		</g>
	</g>
	<g id="_273238ff">
		<path d="M105.3,68.7c2.3-0.7,4.7-0.7,6.9,0.1l86.9,25.6c0.6,0.2,1.3,0.4,1.6,1c0.1,1,0.1,2,0,3c-2.5,0.9-5.1,1.7-7.7,2.5
			c-26.7,8.6-53.5,17.2-80.2,25.9c-1.8,0.8-3.9,0.9-5.8,0.5c-21.1-6.2-42.1-12.4-63.2-18.7c-0.3,0-0.5-0.2-0.5-0.5
			c0-0.3,0.2-0.5,0.5-0.5c0,0,0,0,0,0c20.2-6.5,40.4-13.1,60.6-19.6c2.4,1.3,5.2,1.5,7.7,0.5c1-0.3,1.8-1,2.3-2
			c0.2-0.9-0.1-1.9-0.9-2.4c-1.5-1-3.2-1.5-5-1.3c-1.7,0-3.3,0.6-4.5,1.7c-0.5,0.4-0.5,1.2-1.2,1.4l-63.5,20.4
			c-0.6,0.1-1.1,0.4-1.7,0.6c-0.1,0.4-0.1,0.7-0.1,1.1c0.1,5.3,0.1,10.6,0.2,15.8c2.3,0.5,4.3,1.9,5.5,3.9c1.7,3,1.3,6.7-1,9.3
			c-0.8,0.8-1.6,1.5-2.6,2c0,0.4,0,0.9,0,1.3c1.5,0.9,2.8,2.2,3.8,3.7c2.3,3.6,3.3,7.8,3.9,12c0.4,3.2,0.5,6.4,0.3,9.7
			c0,0.3-0.2,0.6-0.5,0.6c-4.4,1.8-9.2,2.5-14,1.9c-2.5-0.3-4.8-0.9-7.1-1.9c-0.4-3.5-0.4-7,0-10.5c0.4-4.1,1.6-8.1,3.6-11.7
			c1-1.5,2.2-2.8,3.8-3.8c-0.1-0.4-0.2-0.9-0.2-1.3c-1.4-0.6-2.6-1.7-3.5-2.9c-2.4-3.6-1.4-8.5,2.2-10.9c0.6-0.4,1.2-0.7,1.9-0.9
			c0.3-0.2,1-0.2,1-0.6c0-5.7-0.2-11.3-0.2-17c0-0.3-0.1-0.7-0.4-0.7c-5.9-1.8-11.9-3.4-17.9-5.3c0-0.9,0-1.9-0.1-2.8
			c1.2-0.8,2.5-1.4,3.9-1.7C48.5,87,76.9,77.8,105.3,68.7z"/>
		<path d="M159.6,115.1c0.4-0.1,0.8,0.2,1,0.6c4.1,7.3,6.5,15.4,7.2,23.8c0.1,0.5-0.2,1-0.7,1.1c-0.1,0-0.1,0-0.2,0
			c-8.8,0.6-17.4,2.4-25.7,5.4c-11.3,4.1-21.7,10-31,17.6c-0.4,0.4-1,0.4-1.4,0c0,0,0,0,0,0c-7.3-5.7-15.3-10.4-23.8-14
			c-10.6-4.5-21.8-7-33.3-7.6c-0.6,0-1-0.4-1-1c0,0,0-0.1,0-0.1c0.5-8,2.6-15.9,6.2-23.1c0.2-0.5,0.5-0.9,0.8-1.3
			c0.3-0.2,0.8-0.2,1.1,0c16.1,4.8,32.2,9.5,48.4,14.3c1.7,0.4,3.5,0.3,5.1-0.4C128,125.2,143.8,120.1,159.6,115.1z"/>
	</g>
	<g>
		<circle class="st4" cx="145.3" cy="200" r="22.8"/>
		<circle class="st3" cx="145.3" cy="200" r="19.9"/>
		<circle class="st4" cx="145.3" cy="200" r="4"/>
		<g id="d">
			<g id="c">
				<g id="b">
					<g id="a">
						<circle class="st4" cx="165" cy="202.6" r="1"/>
						<path class="st4" d="M145.3,219.9l0.7-12l-0.7-5.7l-0.7,5.7L145.3,219.9z"/>
					</g>
					<g id="a-2">
						<circle class="st4" cx="163.7" cy="207.6" r="1"/>
						<path class="st4" d="M140.1,219.2l3.8-11.4l0.8-5.7l-2.1,5.3L140.1,219.2z"/>
					</g>
				</g>
				<g id="b-2">
					<g id="a-3">
						<circle class="st4" cx="161.1" cy="212.1" r="1"/>
						<path class="st4" d="M135.3,217.2l6.6-10l2.3-5.3l-3.4,4.6L135.3,217.2z"/>
					</g>
					<g id="a-4">
						<circle class="st4" cx="157.4" cy="215.8" r="1"/>
						<path class="st4" d="M131.2,214.1l8.9-8l3.6-4.5l-4.5,3.5L131.2,214.1z"/>
					</g>
				</g>
			</g>
			<g id="c-2">
				<g id="b-3">
					<g id="a-5">
						<circle class="st4" cx="152.9" cy="218.4" r="1"/>
						<path class="st4" d="M128,209.9l10.7-5.4l4.6-3.4l-5.3,2.3L128,209.9z"/>
					</g>
					<g id="a-6">
						<circle class="st4" cx="147.9" cy="219.7" r="1"/>
						<path class="st4" d="M126,205.1l11.7-2.4l5.3-2.1l-5.7,0.8L126,205.1z"/>
					</g>
				</g>
				<g id="b-4">
					<g id="a-7">
						<circle class="st4" cx="142.7" cy="219.7" r="1"/>
						<path class="st4" d="M125.3,200l12,0.7l5.7-0.7l-5.7-0.7L125.3,200z"/>
					</g>
					<g id="a-8">
						<circle class="st4" cx="137.6" cy="218.4" r="1"/>
						<path class="st4" d="M126,194.8l11.4,3.8l5.7,0.8l-5.3-2.1L126,194.8z"/>
					</g>
				</g>
			</g>
		</g>
		<g id="d-2">
			<g id="c-3">
				<g id="b-5">
					<g id="a-9">
						<circle class="st4" cx="133.1" cy="215.8" r="1"/>
						<path class="st4" d="M128,190l10,6.6l5.3,2.3l-4.6-3.4L128,190z"/>
					</g>
					<g id="a-10">
						<circle class="st4" cx="129.4" cy="212.1" r="1"/>
						<path class="st4" d="M131.2,185.9l8,8.9l4.5,3.6l-3.6-4.5L131.2,185.9z"/>
					</g>
				</g>
				<g id="b-6">
					<g id="a-11">
						<circle class="st4" cx="126.8" cy="207.6" r="1"/>
						<path class="st4" d="M135.3,182.7l5.4,10.7l3.4,4.6l-2.3-5.3L135.3,182.7z"/>
					</g>
					<g id="a-12">
						<circle class="st4" cx="125.5" cy="202.6" r="1"/>
						<path class="st4" d="M140.1,180.7l2.4,11.7l2.1,5.3l-0.8-5.7L140.1,180.7z"/>
					</g>
				</g>
			</g>
			<g id="c-4">
				<g id="b-7">
					<g id="a-13">
						<circle class="st4" cx="125.5" cy="197.4" r="1"/>
						<path class="st4" d="M145.3,180l-0.7,12l0.7,5.7l0.7-5.7L145.3,180z"/>
					</g>
					<g id="a-14">
						<circle class="st4" cx="126.8" cy="192.3" r="1"/>
						<path class="st4" d="M150.4,180.7l-3.8,11.4l-0.8,5.7l2.1-5.3L150.4,180.7z"/>
					</g>
				</g>
				<g id="b-8">
					<g id="a-15">
						<circle class="st4" cx="129.4" cy="187.8" r="1"/>
						<path class="st4" d="M155.2,182.7l-6.6,10l-2.3,5.3l3.4-4.6L155.2,182.7z"/>
					</g>
					<g id="a-16">
						<circle class="st4" cx="133.1" cy="184.1" r="1"/>
						<path class="st4" d="M159.4,185.9l-8.9,8l-3.6,4.5l4.5-3.6L159.4,185.9z"/>
					</g>
				</g>
			</g>
		</g>
		<g id="d-3">
			<g id="c-5">
				<g id="b-9">
					<g id="a-17">
						<circle class="st4" cx="137.6" cy="181.5" r="1"/>
						<path class="st4" d="M162.5,190l-10.7,5.4l-4.6,3.4l5.3-2.3L162.5,190z"/>
					</g>
					<g id="a-18">
						<circle class="st4" cx="142.7" cy="180.2" r="1"/>
						<path class="st4" d="M164.5,194.8l-11.7,2.4l-5.3,2.1l5.7-0.8L164.5,194.8z"/>
					</g>
				</g>
				<g id="b-10">
					<g id="a-19">
						<circle class="st4" cx="147.9" cy="180.2" r="1"/>
						<path class="st4" d="M165.2,200l-12-0.7l-5.7,0.7l5.7,0.7L165.2,200z"/>
					</g>
					<g id="a-20">
						<circle class="st4" cx="152.9" cy="181.5" r="1"/>
						<path class="st4" d="M164.5,205.1l-11.4-3.8l-5.7-0.8l5.3,2.1L164.5,205.1z"/>
					</g>
				</g>
			</g>
			<g id="c-6">
				<g id="b-11">
					<g id="a-21">
						<circle class="st4" cx="157.4" cy="184.1" r="1"/>
						<path class="st4" d="M162.5,209.9l-10-6.6l-5.3-2.3l4.6,3.4L162.5,209.9z"/>
					</g>
					<g id="a-22">
						<circle class="st4" cx="161.1" cy="187.8" r="1"/>
						<path class="st4" d="M159.4,214.1l-8-8.9l-4.5-3.5l3.6,4.5L159.4,214.1z"/>
					</g>
				</g>
				<g id="b-12">
					<g id="a-23">
						<circle class="st4" cx="163.7" cy="192.3" r="1"/>
						<path class="st4" d="M155.2,217.2l-5.4-10.7l-3.4-4.6l2.3,5.3L155.2,217.2z"/>
					</g>
					<g id="a-24">
						<circle class="st4" cx="165" cy="197.4" r="1"/>
						<path class="st4" d="M150.4,219.2l-2.4-11.7l-2.1-5.3l0.8,5.7L150.4,219.2z"/>
					</g>
				</g>
			</g>
		</g>
	</g>
</g>
</svg>
