<?xml version="1.0" encoding="utf-8"?>
<!-- Generator: Adobe Illustrator 24.2.0, SVG Export Plug-In . SVG Version: 6.00 Build 0)  -->
<svg version="1.1" id="Layer_1" xmlns="http://www.w3.org/2000/svg" xmlns:xlink="http://www.w3.org/1999/xlink" x="0px" y="0px"
	 viewBox="0 0 3500 2000" style="enable-background:new 0 0 3500 2000;" xml:space="preserve">
<style type="text/css">
	.st0{fill:#FFFFFF;}
	.st1{fill:#B75742;}
	.st2{fill:#50BFA5;}
	.st3{fill:#3C8F7C;}
	.st4{fill:#355389;}
	.st5{fill:#466EB6;}
	.st6{fill:#F7CC7F;}
	.st7{fill:#FAE0B2;}
	.st8{fill:#96D9C9;}
	.st9{fill:#F48C7F;}
	.st10{fill:#184655;}
	.st11{fill:#F7A491;}
	.st12{fill:#13375B;}
	.st13{fill:#F47458;}
	.st14{fill:#86B1F2;}
	.st15{fill:#9BC1F9;}
</style>
<rect x="-151.2" y="-211.4" class="st0" width="3500" height="2000"/>
<g>
	<path class="st1" d="M2116,1720.7h-319.1c-12.2,0-22.1-20-22.1-44.6v-26.5c0-24.6,9.9-44.6,22.1-44.6H2116l0,0
		c-14.6,32.2-14.8,81.5-0.6,114.4L2116,1720.7z"/>
	<polygon class="st2" points="1590.6,677.1 1576.6,681.4 1567.1,659.6 1545.9,663.3 1536.2,648.2 1528.5,653.1 1541.5,673.4 
		1561.6,669.8 1571.4,692.5 1592.5,686 	"/>
	<polygon class="st2" points="2489.5,1460.8 2475.5,1465.1 2466,1443.3 2444.8,1447.1 2435.1,1431.9 2427.4,1436.8 2440.4,1457.1 
		2460.5,1453.5 2470.3,1476.2 2491.4,1469.7 	"/>
	<g>
		<g>
			<path class="st2" d="M1504.2,1718.8c0,0-74.8-253.5-80.8-309.4c-6-55.9,35.8-38.6,35.8-38.6s-35.2-106.6-9.7-131.9
				c25.4-25.3,48.4,21.9,48.4,21.9s7.7-129.4,34.8-129.4c50.5-0.1,49.5,141.1,49.5,141.1s12.9-55.3,40-40.1
				c40.8,22.8-17.7,133.6-17.7,133.6s52,0,70.3,26.3C1707.5,1439.2,1504.2,1718.8,1504.2,1718.8z"/>
		</g>
	</g>
	<g>
		<g>
			<path class="st2" d="M1528.7,1685.2c0,0-215.6-36.1-262.5-74.3c-46.9-38.2-0.5-55.4-0.5-55.4s-108.3-55.5-107.1-93.3
				c1.3-37.8,55.1-18.6,55.1-18.6s-91.3-104.1-69.7-123.8c40.2-36.8,145.8,71.4,145.8,71.4s-31.3-51.5,1.7-59.6
				c49.8-12.3,86.5,114.6,86.5,114.6s-9.3-50.1,25-43.4C1464.4,1414.7,1528.7,1685.2,1528.7,1685.2z"/>
		</g>
		<path class="st3" d="M1402.9,1402.7c-34.4-6.2-25,43.4-25,43.4s-36.7-126.9-86.5-114.6c-33,8.1-1.7,59.6-1.7,59.6
			s-105.5-108.2-145.8-71.4l384,365.5C1521.1,1650.4,1460.5,1413.2,1402.9,1402.7z"/>
	</g>
	<g>
		<path class="st4" d="M1590,1714.9c0,0-113.6-115.5-170.7-127.5c-57.2-12-46.9,28.7-46.9,28.7s-113.5-99.2-139.8-75.2
			c-26.3,24,2.1,47.3,2.1,47.3s-94.5-16.7-108,14.3c-20.8,47.7,134.6,73.6,134.6,73.6s-65.1,4.5-50,34.4
			C1234.1,1755.5,1590,1714.9,1590,1714.9z"/>
		<path class="st5" d="M1126.7,1602.4c13.5-31,108-14.3,108-14.3s-28.4-23.2-2.1-47.3c26.3-24,136.2,61.7,136.2,61.7
			s-25.9-49.5,31.3-37.5c57.2,12,189.9,149.9,189.9,149.9L1126.7,1602.4z"/>
	</g>
	<g>
		<path class="st6" d="M1770.8,523.9c-38.2,6.3-49.6,56.5-17.8,78.9c5.7,4,9.7,10.1,11.3,16.9l5.8,23.3c1.6,6.4,7.9,10.6,14.4,9.5
			l14.5-2.4c6.5-1.1,11.2-7,10.6-13.6c-2-24.1-4.5-32.8,3.3-43.6C1835.8,561.5,1809,517.6,1770.8,523.9z"/>
		<g>
			<path class="st7" d="M1774.7,625.9c-2.5-20.6-6-42.4-7.2-48.6c-21.9,1.2-13.6-21.9-3.5-12.5c2.9,2.7,4.2,6.3,5.1,10.3
				c7.3-0.7,14.4-2.7,20.9-6.1c-0.3-5.1-0.9-8.9,0.6-12.2c2.1-4.9,8.4-6.3,10.9-1.5c1,1.8,1.1,4.1,0.4,6c-1.5,4.1-5.9,6.8-9.7,8.9
				c1.2,16.4,2.7,32.9,4.8,49.2l-2.1,0.3c-2-16-3.6-32.3-4.7-48.4c-6.4,3.2-13.4,5.2-20.6,5.9c1.5,7.9,4.8,29.1,7.1,48.5
				L1774.7,625.9z M1757.1,572.4c1.9,2.1,5.2,3,10,2.8c-0.8-3.5-2-6.7-4.5-8.9C1757.2,561.3,1753.8,568.9,1757.1,572.4z
				 M1792.5,557.6c-1.2,2.7-0.7,6.2-0.5,10.3c3.1-1.8,6.8-4,7.9-7.3c0.8-2.3-0.1-5.5-2.4-6.1
				C1797.3,554.4,1793.4,555.7,1792.5,557.6z"/>
		</g>
		<path class="st8" d="M1764.2,619.1c0.1,0.2,0.1,0.4,0.2,0.6l5.8,23.3c1.6,6.4,7.9,10.6,14.4,9.5l14.5-2.4
			c6.5-1.1,11.2-7,10.6-13.6c-0.9-10.7-1.9-18.4-2-24.6L1764.2,619.1z"/>
		<g>
			<path class="st7" d="M1742.5,506.5l-11.4-20.9c-1.1-2-0.4-4.6,1.7-5.7c2-1.1,4.6-0.4,5.7,1.7l11.4,20.9c1.1,2,0.4,4.6-1.7,5.7
				C1746.1,509.2,1743.6,508.5,1742.5,506.5z"/>
		</g>
		<g>
			<path class="st7" d="M1717.5,556.9l-24.9-2.2c-2.3-0.2-4-2.2-3.8-4.5c0.2-2.3,2.2-4,4.5-3.8l24.9,2.2c2.3,0.2,4,2.2,3.8,4.5
				C1721.8,555.5,1719.8,557.1,1717.5,556.9z"/>
		</g>
		<g>
			<path class="st7" d="M1692.8,633.3c-1.6-1.6-1.6-4.3,0-5.9c6.1-6.1,12.9-11.5,20-16.3c1.9-1.3,4.5-0.8,5.8,1.2
				c1.3,1.9,0.8,4.5-1.2,5.8c-6.7,4.5-13,9.6-18.8,15.3C1697,635,1694.4,635,1692.8,633.3z"/>
		</g>
		<g>
			<path class="st7" d="M1804,505.4c-2.2-0.6-3.5-2.9-3-5.1c2.8-10.6,4.6-21.5,5.1-32.4c0.1-2.3,2.1-4.1,4.4-3.9
				c2.3,0.1,4.1,2.1,3.9,4.4c-0.6,11.5-2.4,23-5.4,34.1C1808.5,504.6,1806.2,505.9,1804,505.4z"/>
		</g>
		<g>
			<path class="st7" d="M1829.7,537.4c-0.7-2.2,0.6-4.5,2.8-5.2l25.9-7.8c2.2-0.7,4.5,0.6,5.2,2.8c0.7,2.2-0.6,4.5-2.8,5.2
				l-25.9,7.8C1832.7,540.8,1830.3,539.6,1829.7,537.4z"/>
		</g>
		<g>
			<path class="st7" d="M1872.2,606.3c-0.4,0-0.8-0.1-1.1-0.2c-9-2.5-17.7-6-25.9-10.4c-2-1.1-2.8-3.6-1.7-5.6
				c1.1-2,3.6-2.8,5.6-1.7c7.7,4.1,15.9,7.4,24.3,9.7c2.2,0.6,3.5,2.9,2.9,5.1C1875.7,605.1,1874,606.3,1872.2,606.3z"/>
		</g>
	</g>
	<path class="st6" d="M2251.6,790.6l-13.1-30.9l-32.9-6.8c-3.7-0.8-5-5.5-2.1-8l25.4-22l-3.7-33.3c-0.4-3.8,3.7-6.4,7-4.5l28.7,17.3
		l30.6-13.9c3.5-1.6,7.3,1.5,6.4,5.2l-7.6,32.7l22.6,24.8c2.6,2.8,0.8,7.4-3,7.7l-33.4,2.9l-16.6,29.2
		C2258,794.4,2253.1,794.1,2251.6,790.6z"/>
	<polygon class="st9" points="2459.6,684.6 2454.3,706.2 2418.5,701.4 2406.7,732.1 2379.4,732.8 2379.8,746.7 2416.4,745.6 
		2427.5,716.6 2464.7,721.6 2472.8,689 	"/>
	<path class="st1" d="M1941.2,1720.9h-291.8c-11.1,0-20.2-60.4-20.2-134.9v-80.2c0-74.5,9-134.9,20.2-134.9h291.8l0,0
		c-13.3,97.5-13.6,246.5-0.5,345.9L1941.2,1720.9z"/>
	<g>
		<g>
			<path class="st10" d="M2167.4,897l28.6-7.5l-19.4,258.3l-34.3,1.1l17.3-242.5C2159.9,902,2163,898.2,2167.4,897z"/>
			<g>
				<path class="st6" d="M2179.2,1155.2c-0.6,0.1-1.3,0.1-2,0c-5.7-0.7-9.9-6.3-9.4-12.6l19-242.9c0.5-6.3,5.5-10.9,11.2-10.2
					c5.7,0.7,9.9,6.3,9.4,12.6l-19,242.9C2187.9,1150.5,2184,1154.7,2179.2,1155.2z"/>
				<path class="st6" d="M1916.2,1168.1c0,0.2,0,0.4,0,0.5l0,0c0.9,9.9,8.6,17.3,17.1,16.5l241.3-21.6c8.5-0.8,14.8-9.4,13.9-19.3
					c0-0.4-0.1-0.8-0.2-1.2L1916.2,1168.1z"/>
			</g>
		</g>
		<path class="st11" d="M2084.2,1429c-15.8,8.8-64.1-6.6-64.1-8c-0.7,13.2-54.1,142.4-54.1,142.4l0,39.8c0,0,110,5.2,108.4-4.5
			c-1.6-9.7-7.5-3.4-29.4-21.8c-1.9-1.6-32.8-8.8-24.4-27C2037.4,1513.2,2073.1,1451.9,2084.2,1429z"/>
		<path class="st3" d="M1962.5,1604.6l120.4,0c4.3-0.4,5.4-4,3.8-6.1c-3.2-4.4-26.2-14.9-41.8-21.8c-27,3.2-74.5-7.2-78.9-13.4
			C1954.6,1578.6,1960,1604.1,1962.5,1604.6z"/>
		<path class="st4" d="M1936,1336.3c-1.6-4.9,103.7-49.6,108.4-44.5c8.3,9-57,178.6-57,178.6l75,22.9c0,0,78-195.9,74.8-231.7
			c-3.3-35.8-42.3-76.5-127-50.5S1936,1336.3,1936,1336.3z"/>
		<path class="st11" d="M2154.1,1451.3c-17.8-3.2-40.8-4.2-59.3-4.5c2.2,16.4,12.7,100.6,10.8,105.8c-7.8,21-25.2,30.8-25.2,30.8
			s81.8,73.8,86.7,65.3c4.9-8.5-3.6-7.4-9-35.5c-0.5-2.5-12.3-41.7-13-62.9C2143.8,1509.9,2153.5,1473.7,2154.1,1451.3z"/>
		<path class="st5" d="M2127.8,1175.8c-11.4-6.1-41-6.3-73.6-4.2c-63.5,4.1-126.2,16.6-186.5,36.6l-40.4,13.4l0.1-41.4
			c0,0-128.6-21.5-133,10.4c-6.7,48,1.6,145.4,44.5,167.1c133,67.5,319.5-107.6,320.2-84.7c0.9,30.8,26.8,145.3,33.5,195.4
			c18.4,0.3,50.1,0.3,63.9-2.8C2159.1,1367.3,2160.3,1193.1,2127.8,1175.8z"/>
		<path class="st3" d="M2078,1585.1l91.9,73.4c3.6,2.4,6.7,0.3,6.8-2.3c0.4-5.4-10.9-28.1-18.5-43.3c-22.9-14.7-53.1-53-52.6-60.5
			C2096,1560.6,2076.4,1583.2,2078,1585.1z"/>
		<path class="st12" d="M1869.9,775.3c-3.1-28.2-6.3-56.6-29.7-77.2c-18.9-16.7-43-19.6-66.8-10.6c-67.5,25.4-32.7,85.3-118.7,145.7
			c-26.7,18.8-56.2,31.6-76.3,56.9c-28.2,35.4-17.5,77.9,8.1,106.3c122.8,135.9,259.9-47.6,269.8-91.7
			C1863.6,871.8,1871.9,793.5,1869.9,775.3z"/>
		<path class="st2" d="M1845,934c-10-18.5-20.4-33.2-20.4-33.2c-10.4-18.5-37.3-27.9-37.3-27.9s-9,0.2-19.3,0.7
			c-0.6,1.7-1.3,2.9-1.9,3.4c-3.9,2.9-26.1-0.8-40.5,8.9c-48.1,41.3-34.8,241.3-31,304.5l146.6,1.4c0,0-18.5-136,11.3-170.9
			C1873.2,996.7,1859.8,961.5,1845,934z"/>
		<path class="st11" d="M1778.9,805.3c0,0-8.1,57.6-13.7,71.6s31,43.9,61.4,53c30.4,9.1-9.3-30.9-8-45.9c1.3-15,6.8-85.8,6.8-85.8
			L1778.9,805.3z"/>
		<path class="st13" d="M1823.8,818.6c0.9-11.7,1.5-20.3,1.5-20.3l-46.5,7.1c0,0-1.2,6.8-2.5,16.3
			C1795.2,832.6,1812.2,829.1,1823.8,818.6z"/>
		<path class="st11" d="M1793.4,700.2c0,0-18.3,4.1-29.6,21.4c-11.3,17.3-19.1,68,18.2,91.8c37.2,23.7,66.2-9.8,66.7-42.5
			C1849.2,738.1,1842.1,694.4,1793.4,700.2z"/>
		<path class="st11" d="M1857.2,760.5c-3.2,7.9-9.5,12.8-14.1,10.9c-4.6-1.9-5.8-9.8-2.6-17.6c3.2-7.9,9.5-12.8,14.1-10.9
			C1859.2,744.7,1860.4,752.6,1857.2,760.5z"/>
		<path class="st12" d="M1798.9,699.1c0,0-23.3,52.4-43.9,57c-20.5,4.7-20.2,31-20.2,31s0.5-60.8,19.7-74.8
			C1773.8,698.4,1798.9,699.1,1798.9,699.1z"/>
		<path class="st11" d="M1763.2,767c2.7,8.5,0.2,16.9-5.5,18.7c-5.7,1.8-12.6-3.6-15.3-12.1c-2.7-8.5-0.2-16.9,5.5-18.7
			C1753.7,753.1,1760.5,758.5,1763.2,767z"/>
		<path class="st11" d="M2025.5,1145c-8.8-3.2-21.9-3.6-21.7-4.7c0.9-4.7,39.7,10.4,34.5,3.5c-2.9-3.8-32-17.3-39.1-15.1
			c-6.9,2.2-51.9,14.8-51.9,14.8l-123.1-28.9c0,0-31.1-70.6-34.1-131.3c-25.7,3.5-43.2,9.8-65.5,22.2c10.8,58,36.9,152.1,65.9,169.7
			c12.2,7.4,157.5-8.9,157.5-8.9s32-2.3,37.3-4.3c4-1.5,14.2-7.3,19.7-8.9c12.6-3.6,35.1,5.4,35.2,2.9
			C2040.2,1154.4,2034.5,1148.3,2025.5,1145z"/>
		<path class="st8" d="M1790.9,918.6c-1.2-18.7-8.3-36.7-28.1-42.5c-12.3-3.6-26.1-0.2-36,7.9c-11.7,9.6-15,24.9-14.9,39.4
			c0.1,33,2.4,67.1,8.4,99.6c22.3-12.4,48.4-19.8,74.1-23.3C1794.3,999.4,1792.4,943.2,1790.9,918.6z"/>
	</g>
	<g>
		<path class="st6" d="M1409.5,953.8l-190.9-35.5c-3.8-0.7-6.4-4.4-5.6-8.2l23.9-128.4c0.7-3.8,4.4-6.4,8.2-5.6l190.9,35.5
			c3.8,0.7,6.4,4.4,5.6,8.2l-23.9,128.4C1417,952,1413.3,954.5,1409.5,953.8z"/>
		<path class="st6" d="M1318.6,807l-58.1-10.8c-3.8-0.7-6.4-4.4-5.6-8.2l3.6-19.5c0.7-3.8,4.4-6.4,8.2-5.6l58.1,10.8
			c3.8,0.7,6.4,4.4,5.6,8.2l-3.6,19.5C1326.1,805.2,1322.4,807.7,1318.6,807z"/>
		<path class="st7" d="M1418.1,948.9c-1,3.5-4.5,5.7-8.1,5L1218,918.1c-3.6-0.7-6.1-3.9-5.7-7.6l10.1-115.1c0.2-2,1.2-3.8,2.8-5
			c1.6-1.2,3.6-1.7,5.6-1.3l213.4,39.7c2,0.4,3.7,1.5,4.7,3.2c1,1.7,1.3,3.7,0.8,5.6L1418.1,948.9z"/>
	</g>
	<g>
		<polygon class="st2" points="2293.5,528.4 2260.9,537.3 2253.8,497.7 2264.5,495.8 2269.5,523.7 2290.7,517.9 		"/>
	</g>
	<g>
		<path class="st4" d="M1252.3,1072.3c8.2-0.7,20.8,2.9,26.4,6.8c0.8,0.8,7.3,3.4,14.1,14.5l-1.5,1c-7.1-7.4-11.9-9.1-17.6-10.8
			c-9.4-2.4-18.8-0.6-19.6-0.2L1252.3,1072.3z"/>
		<path class="st13" d="M1292,1094.1c0,0-49.9,8.3-45.2,47.3c4.7,39,57.3,69.3,104.2,45.2c63.2-32.4,38.2-114.8-6.7-121.2
			C1299.3,1059,1292,1094.1,1292,1094.1z"/>
		<path class="st9" d="M1313.2,1076.9c0,0,13-13.4,41.5-1.2c28.5,12.2,30.6,68.8,5.1,65.5C1334.4,1138,1292.8,1085.1,1313.2,1076.9z
			"/>
	</g>
	<g>
		<path class="st14" d="M1656.2,559.4l-205.1,73.2c-6.6,2.4-13.9-1.1-16.2-7.7L1397,518.7c-2.4-6.6,1.1-13.9,7.7-16.2l205.1-73.2
			c6.6-2.4,13.9,1.1,16.2,7.7l37.9,106.1C1666.3,549.8,1662.8,557,1656.2,559.4z"/>
		<path class="st0" d="M1520.3,532.1c7.5,21.1-3.5,44.4-24.6,51.9s-44.4-3.5-51.9-24.6c-7.5-21.1,3.5-44.4,24.6-51.9
			C1489.5,499.9,1512.7,511,1520.3,532.1z"/>
		<path class="st14" d="M1487.8,526.4c2.2,6.2-1,13.1-7.3,15.3c-6.2,2.2-13.1-1-15.3-7.3c-2.2-6.2,1-13.1,7.3-15.3
			C1478.7,516.9,1485.6,520.2,1487.8,526.4z"/>
		<path class="st14" d="M1507.3,559.8l-36.1,12.9l-1.4-4c-2.6-7.4,1.2-15.5,8.6-18.1l9.3-3.3c7.4-2.6,15.5,1.2,18.1,8.6
			L1507.3,559.8z"/>
		<g>
			<path class="st0" d="M1525.3,509.9c-2.2,0-4.1-1.4-4.9-3.4c-1-2.7,0.4-5.7,3.1-6.6l89.7-32c0.6-0.2,1.1-0.3,1.7-0.3
				c2.2,0,4.1,1.4,4.9,3.4c1,2.7-0.4,5.7-3.1,6.6l-89.7,32C1526.5,509.8,1525.9,509.9,1525.3,509.9z"/>
		</g>
		<g>
			<path class="st0" d="M1549.5,532.3c-2.2,0-4.1-1.4-4.9-3.4c-1-2.7,0.4-5.7,3.1-6.6l70-25c0.6-0.2,1.1-0.3,1.7-0.3
				c2.2,0,4.1,1.4,4.9,3.4c0.5,1.3,0.4,2.7-0.2,4c-0.6,1.3-1.6,2.2-2.9,2.7l-70,25C1550.7,532.2,1550.1,532.3,1549.5,532.3z"/>
		</g>
	</g>
	<g>
		<g>
			<path class="st7" d="M2380.2,1362.2l-37.5-94.2c-1.9-4.7,0.4-10.1,5.2-12l135.1-53.8c4.7-1.9,10.1,0.4,12,5.2l37.5,94.2
				c1.9,4.7-0.4,10.1-5.2,12l-135.1,53.8C2387.5,1369.2,2382.1,1366.9,2380.2,1362.2z"/>
			<path class="st5" d="M2507.6,1307.7l-33.7-84.6c-0.5-1.4,0.1-2.9,1.5-3.4l0,0c1.4-0.5,2.9,0.1,3.4,1.5l33.7,84.6
				c0.5,1.4-0.1,2.9-1.5,3.4l0,0C2509.7,1309.7,2508.2,1309.1,2507.6,1307.7z"/>
			<path class="st5" d="M2491.6,1296.5l-27.7-69.5c-0.5-1.4,0.1-2.9,1.5-3.4l0,0c1.4-0.5,2.9,0.1,3.4,1.5l27.7,69.5
				c0.5,1.4-0.1,2.9-1.5,3.4l0,0C2493.7,1298.6,2492.1,1297.9,2491.6,1296.5z"/>
			<path class="st5" d="M2487.6,1315.7l-33.7-84.6c-0.5-1.4,0.1-2.9,1.5-3.4l0,0c1.4-0.5,2.9,0.1,3.4,1.5l33.7,84.6
				c0.5,1.4-0.1,2.9-1.5,3.4l0,0C2489.7,1317.7,2488.1,1317.1,2487.6,1315.7z"/>
			<path class="st5" d="M2469.8,1300.4l-26-65.3c-0.5-1.4,0.1-2.9,1.5-3.4l0,0c1.4-0.5,2.9,0.1,3.4,1.5l26,65.3
				c0.5,1.4-0.1,2.9-1.5,3.4l0,0C2471.9,1302.4,2470.4,1301.7,2469.8,1300.4z"/>
			<g>
				<path class="st4" d="M2506.7,1214l-0.7-1.7c-0.3-0.6-0.9-0.9-1.5-0.7l-12.8,5.1c-0.6,0.2-0.9,0.9-0.6,1.6l0.7,1.7
					c0.3,0.6,0.9,0.9,1.5,0.7l12.8-5.1C2506.7,1215.4,2507,1214.7,2506.7,1214z"/>
				<path class="st4" d="M2509.6,1221.3l-0.7-1.7c-0.3-0.6-0.9-0.9-1.5-0.7l-12.8,5.1c-0.6,0.2-0.9,0.9-0.6,1.6l0.7,1.7
					c0.3,0.6,0.9,0.9,1.5,0.7l12.8-5.1C2509.6,1222.7,2509.9,1222,2509.6,1221.3z"/>
				<path class="st4" d="M2512.6,1228.6l-0.7-1.7c-0.2-0.6-0.9-0.9-1.5-0.7l-12.8,5.1c-0.6,0.2-0.9,0.9-0.6,1.6l0.7,1.7
					c0.3,0.6,0.9,0.9,1.5,0.7l12.8-5.1C2512.5,1229.9,2512.8,1229.2,2512.6,1228.6z"/>
				<path class="st4" d="M2515.5,1235.9l-0.7-1.7c-0.3-0.6-0.9-0.9-1.5-0.7l-12.8,5.1c-0.6,0.2-0.9,0.9-0.6,1.6l0.7,1.7
					c0.3,0.6,0.9,0.9,1.5,0.7l12.8-5.1C2515.4,1237.2,2515.7,1236.5,2515.5,1235.9z"/>
				<path class="st4" d="M2518.4,1243.2l-0.7-1.7c-0.3-0.6-0.9-0.9-1.5-0.7l-12.8,5.1c-0.6,0.2-0.9,0.9-0.6,1.6l0.7,1.7
					c0.3,0.6,0.9,0.9,1.5,0.7l12.8-5.1C2518.3,1244.5,2518.6,1243.8,2518.4,1243.2z"/>
				<path class="st4" d="M2521.3,1250.5l-0.7-1.7c-0.3-0.6-0.9-0.9-1.5-0.7l-12.8,5.1c-0.6,0.2-0.9,0.9-0.6,1.6l0.7,1.7
					c0.3,0.6,0.9,0.9,1.5,0.7l12.8-5.1C2521.2,1251.8,2521.5,1251.1,2521.3,1250.5z"/>
				<path class="st4" d="M2524.2,1257.8l-0.7-1.7c-0.3-0.6-0.9-0.9-1.5-0.7l-12.8,5.1c-0.6,0.2-0.9,0.9-0.6,1.6l0.7,1.7
					c0.3,0.6,0.9,0.9,1.5,0.7l12.8-5.1C2524.1,1259.1,2524.4,1258.4,2524.2,1257.8z"/>
				<path class="st4" d="M2527.1,1265.1l-0.7-1.7c-0.3-0.6-0.9-0.9-1.5-0.7l-12.8,5.1c-0.6,0.2-0.9,0.9-0.6,1.6l0.7,1.7
					c0.3,0.6,0.9,0.9,1.5,0.7l12.8-5.1C2527.1,1266.4,2527.3,1265.7,2527.1,1265.1z"/>
				<path class="st4" d="M2530,1272.3l-0.7-1.7c-0.3-0.6-0.9-0.9-1.5-0.7l-12.8,5.1c-0.6,0.2-0.9,0.9-0.6,1.6l0.7,1.7
					c0.3,0.6,0.9,0.9,1.5,0.7l12.8-5.1C2530,1273.7,2530.2,1273,2530,1272.3z"/>
				<path class="st4" d="M2532.9,1279.6l-0.7-1.7c-0.3-0.6-0.9-0.9-1.5-0.7l-12.8,5.1c-0.6,0.2-0.9,0.9-0.6,1.6l0.7,1.7
					c0.3,0.6,0.9,0.9,1.5,0.7l12.8-5.1C2532.9,1281,2533.1,1280.3,2532.9,1279.6z"/>
				<path class="st4" d="M2535.8,1286.9l-0.7-1.7c-0.2-0.6-0.9-0.9-1.5-0.7l-12.8,5.1c-0.6,0.2-0.9,0.9-0.6,1.6l0.7,1.7
					c0.3,0.6,0.9,0.9,1.5,0.7l12.8-5.1C2535.8,1288.3,2536,1287.6,2535.8,1286.9z"/>
				<path class="st4" d="M2538.7,1294.2l-0.7-1.7c-0.3-0.6-0.9-0.9-1.5-0.7l-12.8,5.1c-0.6,0.2-0.9,0.9-0.6,1.6l0.7,1.7
					c0.2,0.6,0.9,0.9,1.5,0.7l12.8-5.1C2538.7,1295.5,2539,1294.8,2538.7,1294.2z"/>
			</g>
		</g>
		<g>
			<path class="st1" d="M2574.1,1286.7l-53.6,76.3c-0.1,0.2-0.2,0.4-0.3,0.6l-5.5,16.8c-0.6,2,1.6,3.6,3.3,2.3l14.3-10.8
				c0.2-0.1,0.3-0.3,0.5-0.5l53.8-76.5c0.7-1,0.4-2.3-0.6-3l-9-5.8C2576,1285.5,2574.8,1285.8,2574.1,1286.7z"/>
			<path class="st6" d="M2532.8,1371.5l-0.1,0.2l-13.8,10.4l-3.8-2.5l5.2-15.9C2524.3,1365.9,2529.1,1368.2,2532.8,1371.5z"/>
		</g>
	</g>
	<g>
		<path class="st5" d="M2031,460.2c7.7,6.2,21.1,26,38.3,39.9c10,8.1,17.7,6.1,30.5,7.6c60.7,7.3,44.2,19.7,51.5,21
			c-2.1,4.8-21,44.9-24.5,53.1c-3.3,7.5-8.9,10.8-17.1,9.7c-12.5-1.7-25.2-3-37.6-5.7c-31.7-6.9-49.3-22.7-72-41.9
			c-6-5.1-7.5-11.5-4.4-18.7C2010.3,491.6,2029.4,463.3,2031,460.2z"/>
		<path class="st14" d="M2157.9,577.1c-0.3,13.2,0.7,15.9-4.9,13.9c-3.4-1.2-6.7-2.8-10-4.4c-2.3-1.2-2.4-2.7-0.5-4.6
			c2.7-2.7,5.5-5.3,8.2-8c-2-5.2,0.3-11.2,5.1-14.1c1-0.6,0.3,0.6,8.7-18.8c-27.9-3.4-47.7-5.8-81.8-10c-9.1-1.1-17.2-4.7-24.3-10.6
			c-24.4-20.4-48.7-40.8-73-61.1c-3.3-2.8-3.7-6.8-1.1-9.9c2-2.4,4.7-2.5,7.5-2.1c7.8,1,84.1,10.5,91.8,11.4
			c10.2,1.2,19.1,5,27,11.6c23.9,20,47.9,40,71.9,60c3.3,2.7,4.2,5.3,3,8.3c-1.3,3.4-4,5-8.2,4c-3-0.7-4.4,0.3-5.4,3.1
			c-4.7,12.6-8,15.4-6.8,20.1C2165.9,569.3,2161.7,575.5,2157.9,577.1z"/>
	</g>
	<g>
		<path class="st5" d="M2284.4,1475.4l13.9,13.3c32.9,31.4,59.7,68.5,79.1,109.6l2.1,4.5c0,0,36.4,3.2,41.5-29.7l0,0
			c-31.9-36.1-58.2-74.6-79.9-117.4l-6.6-15.4L2284.4,1475.4z"/>
		<path class="st14" d="M2334.5,1440.2c1.8,2.6-8,12.5-21.8,22.1c-13.8,9.6-26.6,15.5-28.3,12.9c-1.8-2.6,8-12.6,21.9-22.2
			C2320.1,1443.4,2332.7,1437.7,2334.5,1440.2z"/>
		<path class="st4" d="M2334.6,1440.3L2334.6,1440.3c0,0-27.8,23.4-39.2,25.8l3.5,4.8c4.2-2.3,8.9-5.2,13.8-8.6
			C2326.4,1452.8,2336.1,1443,2334.6,1440.3z"/>
		<g>
			<path class="st1" d="M2371.6,1508.4c0,4-1.5,21.5-30.5,28.8c1.9,2.6,3.8,5.2,5.6,7.9c18.4-5.4,26.6-14.9,30.4-22.1
				c0.6-1.1,1.3-2.7,1.8-3.8C2376.4,1515.7,2374,1512.1,2371.6,1508.4z"/>
			<polygon class="st1" points="2343.7,1532.1 2300.9,1530.5 2311.1,1539.1 2305,1550.1 2345.5,1539.8 			"/>
			<polygon class="st1" points="2347.6,1542 2332.4,1568.5 2343.1,1564.4 2347.2,1572.8 2354.3,1545 			"/>
			<path class="st13" d="M2353.4,1549.2c-7.5,0.5-14-5.3-14.6-13c-0.5-7.7,5.1-14.4,12.6-15c7.5-0.5,14,5.3,14.6,13
				C2366.5,1542,2360.9,1548.7,2353.4,1549.2z"/>
		</g>
	</g>
	<g>
		<path class="st15" d="M2444.1,949l-90-80.3c-5.8-5.2-3.4-16,4.7-20.5l71.8-40.7c4.6-2.6,9.8-2.4,13.1,0.6l90,80.3
			c5.8,5.2,3.4,16-4.7,20.5l-71.8,40.7C2452.6,952.2,2447.4,952,2444.1,949z"/>
		<g>
			<path class="st0" d="M2439.8,885.1l-7.5-61.7c-0.3-2.4,1.4-4.9,3.8-5.6c2.4-0.8,4.6,0.6,4.9,2.9l6.9,56.8l68.2,16.5
				c2.2,0.5,3.3,2.9,2.3,5.4c-1,2.4-3.5,3.9-5.8,3.4L2439.8,885.1z"/>
		</g>
	</g>
	<g>
		<path class="st10" d="M920.4,1720.9c-4.8,0-8.7,4.5-8.7,10.1c0,5.6,3.9,10.1,9.8,3.3h1772.6c2.3,0,4.1-3,4.1-6.7l0,0
			c0-3.7-1.8-6.7-4.1-6.7H920.4z"/>
	</g>
	<polygon class="st6" points="1264.5,602.5 1273.9,620.9 1294.9,620.2 1303.8,641.6 1326,634 1337.2,657.7 1358.5,653.2 1373,674.2 
		1365,679.7 1354.2,664 1331.7,668.7 1321,645.9 1298.4,653.7 1288.5,630.1 1268,630.8 1259.4,613.7 1246,617 1243.7,607.6 	"/>
	<polygon class="st2" points="2390.1,1073.3 2409.2,1081 2424.6,1066.7 2445.4,1076.9 2457.1,1056.6 2481.1,1067.1 2494.2,1049.8 
		2519,1056.1 2516.6,1065.5 2498.1,1060.7 2484.3,1079.1 2461.2,1069 2449.3,1089.6 2426.3,1078.3 2411.3,1092.3 2393.6,1085.1 
		2385.6,1096.4 2377.7,1090.8 	"/>
</g>
</svg>
