<?xml version="1.0" encoding="utf-8"?>
<!-- Generator: Adobe Illustrator 24.2.0, SVG Export Plug-In . SVG Version: 6.00 Build 0)  -->
<svg version="1.1" id="Layer_1" xmlns="http://www.w3.org/2000/svg" xmlns:xlink="http://www.w3.org/1999/xlink" x="0px" y="0px"
	 viewBox="0 0 512 512" style="enable-background:new 0 0 512 512;" xml:space="preserve">
<g id="Solid">
	<path d="M146.6,178.6h-48c-13.3,0-24,10.7-24,24c0,13.3,10.7,24,24,24h104c13.3,0,24-10.7,24-24v-104c0-13.3-10.7-24-24-24
		s-24,10.7-24,24v48l-116-116c-8.8-8.8-23.2-8.8-32,0c0,0,0,0,0,0c-8.8,8.8-8.8,23.2,0,32c0,0,0,0,0,0L146.6,178.6z"/>
	<path d="M30.6,481.4c8.8,8.8,23.2,8.8,32,0c0,0,0,0,0,0l116-116v48c0,13.3,10.7,24,24,24s24-10.7,24-24v-104c0-13.3-10.7-24-24-24
		l0,0h-104c-13.3,0-24,10.7-24,24l0,0c0,13.3,10.7,24,24,24h48l-116,116C21.8,458.2,21.8,472.5,30.6,481.4
		C30.6,481.4,30.6,481.4,30.6,481.4z"/>
	<path d="M309.4,226.6h104c13.3,0,24-10.7,24-24c0-13.3-10.7-24-24-24h-48l116-116c8.8-8.8,8.8-23.2,0-32c0,0,0,0,0,0
		c-8.8-8.8-23.2-8.8-32,0c0,0,0,0,0,0l-116,116v-48c0-13.3-10.7-24-24-24s-24,10.7-24,24v104C285.4,215.9,296.1,226.6,309.4,226.6z"
		/>
	<path d="M309.4,437.4c13.3,0,24-10.7,24-24v-48l116,116c8.8,8.8,23.2,8.8,32,0c0,0,0,0,0,0c8.8-8.8,8.8-23.2,0-32c0,0,0,0,0,0
		l-116-116h48c13.3,0,24-10.7,24-24s-10.7-24-24-24l0,0h-104c-13.3,0-24,10.7-24,24l0,0v104C285.4,426.6,296.1,437.4,309.4,437.4z"
		/>
</g>
</svg>
