<?xml version="1.0" encoding="utf-8"?>
<!-- Generator: Adobe Illustrator 24.2.0, SVG Export Plug-In . SVG Version: 6.00 Build 0)  -->
<svg version="1.1" xmlns="http://www.w3.org/2000/svg" xmlns:xlink="http://www.w3.org/1999/xlink" x="0px" y="0px"
	 viewBox="0 0 500 500" style="enable-background:new 0 0 500 500;" xml:space="preserve">
<style type="text/css">
	.st0{fill:#EBEBEB;}
	.st1{fill:#FAFAFA;}
	.st2{fill:#E0E0E0;}
	.st3{opacity:0.8;}
	.st4{fill:#F5F5F5;}
	.st5{fill:#F0F0F0;}
	.st6{fill:#E6E6E6;}
	.st7{display:none;}
	.st8{display:inline;}
	.st9{fill:#407BFF;}
	.st10{opacity:0.9;fill:#FFFFFF;}
	.st11{fill:#263238;}
	.st12{opacity:0.1;fill:#FFFFFF;}
	.st13{opacity:0.2;fill:#FFFFFF;}
	.st14{opacity:0.2;}
	.st15{opacity:0.5;fill:#407BFF;}
	.st16{opacity:0.6;fill:#407BFF;}
	.st17{opacity:0.1;}
	.st18{fill:#FFFFFF;}
	.st19{opacity:0.7;fill:#FFFFFF;}
</style>
<g id="Background_Complete">
	<g>
		<rect y="382.4" class="st0" width="500" height="0.3"/>
		<rect x="394.4" y="393.9" class="st0" width="50.9" height="0.3"/>
		<rect x="52.5" y="390.9" class="st0" width="47.2" height="0.3"/>
		<rect x="378.8" y="389.2" class="st0" width="19.2" height="0.3"/>
		<rect x="317.1" y="395.8" class="st0" width="14.1" height="0.3"/>
		<rect x="272.8" y="395.8" class="st0" width="35.4" height="0.3"/>
		<rect x="195.2" y="391.6" class="st0" width="57" height="0.3"/>
		<path class="st0" d="M237,337.8H43.9c-3.1,0-5.7-2.6-5.7-5.7V60.7c0-3.1,2.6-5.7,5.7-5.7H237c3.1,0,5.7,2.6,5.7,5.7v271.4
			C242.7,335.2,240.2,337.8,237,337.8z M43.9,55.2c-3,0-5.5,2.4-5.5,5.5v271.4c0,3,2.4,5.5,5.5,5.5H237c3,0,5.5-2.4,5.5-5.5V60.7
			c0-3-2.4-5.5-5.5-5.5H43.9z"/>
		<path class="st0" d="M453.3,337.8H260.2c-3.1,0-5.7-2.6-5.7-5.7V60.7c0-3.1,2.6-5.7,5.7-5.7h193.1c3.1,0,5.7,2.6,5.7,5.7v271.4
			C459,335.2,456.5,337.8,453.3,337.8z M260.2,55.2c-3,0-5.5,2.4-5.5,5.5v271.4c0,3,2.4,5.5,5.5,5.5h193.1c3,0,5.5-2.4,5.5-5.5V60.7
			c0-3-2.4-5.5-5.5-5.5H260.2z"/>
	</g>
	<g>
		<g>
			<g>
				<rect x="288.6" y="85.7" class="st0" width="101.8" height="296.7"/>
				
					<rect x="197.1" y="190" transform="matrix(-1.836970e-16 1 -1 -1.836970e-16 573.5043 -105.439)" class="st1" width="284.7" height="88.1"/>
			</g>
			<g>
				<rect x="183.7" y="85.7" class="st0" width="101.8" height="296.7"/>
				
					<rect x="285.5" y="86.8" transform="matrix(-1 -1.224647e-16 1.224647e-16 -1 574.0904 468.065)" class="st2" width="3.1" height="294.4"/>
				
					<rect x="92.3" y="190" transform="matrix(-1.836970e-16 1 -1 -1.836970e-16 468.6512 -0.5859)" class="st1" width="284.7" height="88.1"/>
			</g>
			<path class="st2" d="M436.9,83.4H137.2c-0.7,0-1.3-0.6-1.3-1.3l0,0c0-0.7,0.6-1.3,1.3-1.3h299.7c0.7,0,1.3,0.6,1.3,1.3l0,0
				C438.2,82.8,437.6,83.4,436.9,83.4z"/>
			
				<rect x="336.6" y="50.5" transform="matrix(-1.836970e-16 1 -1 -1.836970e-16 433.9718 -244.9715)" class="st2" width="5.7" height="88.1"/>
			
				<rect x="334.7" y="52.4" transform="matrix(-1.836970e-16 1 -1 -1.836970e-16 435.9163 -243.0271)" class="st2" width="9.6" height="88.1"/>
			
				<rect x="224.2" y="58.1" transform="matrix(-1.836970e-16 1 -1 -1.836970e-16 336.7299 -132.5072)" class="st2" width="20.9" height="88.1"/>
			<g class="st3">
				<rect x="375.2" y="74.6" class="st4" width="28.2" height="304.2"/>
				<rect x="382.7" y="74.6" class="st5" width="13.3" height="304.2"/>
				<rect x="390.4" y="74.6" class="st4" width="28.2" height="304.2"/>
				<rect x="397.8" y="74.6" class="st5" width="13.3" height="304.2"/>
				<rect x="404.5" y="74.6" class="st4" width="28.2" height="304.2"/>
			</g>
			<g class="st3">
				<rect x="140.5" y="74.6" class="st4" width="40.9" height="304.2"/>
				<rect x="151.3" y="74.6" class="st5" width="19.3" height="304.2"/>
				<rect x="162.5" y="74.6" class="st4" width="40.9" height="304.2"/>
				<rect x="173.3" y="74.6" class="st5" width="19.3" height="304.2"/>
				<rect x="182.9" y="74.6" class="st4" width="40.9" height="304.2"/>
			</g>
		</g>
		<g>
			<rect x="55.1" y="105.7" class="st5" width="66" height="148.7"/>
			
				<rect x="121.1" y="105.7" transform="matrix(-1 -1.224647e-16 1.224647e-16 -1 244.2835 360.1356)" class="st6" width="2.1" height="148.7"/>
			
				<rect x="19.8" y="153.1" transform="matrix(-1.836970e-16 1 -1 -1.836970e-16 268.1548 91.9803)" class="st1" width="136.7" height="54"/>
		</g>
		<g>
			<path class="st4" d="M125.3,328.1H57.5c-3.1,0-5.6-2.5-5.6-5.6l0,0c0-3.1,2.5-5.6,5.6-5.6h67.8c3.1,0,5.6,2.5,5.6,5.6l0,0
				C130.9,325.5,128.4,328.1,125.3,328.1z"/>
			<polygon class="st6" points="73.8,328.1 62.7,328.1 50,382.4 61.1,382.4 			"/>
			<polygon class="st6" points="96,328.1 84.9,328.1 78.6,382.4 89.8,382.4 			"/>
			<polygon class="st6" points="109,328.1 120.1,328.1 132.7,382.4 121.6,382.4 			"/>
		</g>
	</g>
</g>
<g id="Background_Simple" class="st7">
	<g class="st8">
		<path class="st9" d="M417.3,245.3c4.2-36.1-53.7-129.3-105-157.1C245.7,52.3,164,75.5,132.1,151c-29.6,70.2,13.5,136,84.2,153.5
			C279.3,320,414.3,288.9,417.3,245.3z"/>
		<path class="st10" d="M417.3,245.3c4.2-36.1-53.7-129.3-105-157.1C245.7,52.3,164,75.5,132.1,151c-29.6,70.2,13.5,136,84.2,153.5
			C279.3,320,414.3,288.9,417.3,245.3z"/>
	</g>
</g>
<g id="Shadow_1_">
	<ellipse id="_x3C_Path_x3E__340_" class="st4" cx="250" cy="416.2" rx="193.9" ry="11.3"/>
</g>
<g id="Character_1_">
</g>
<g id="Desk">
	<g>
		<g>
			<g>
				<path class="st9" d="M336.8,257.7h-226c-1.5,0-2.7-1.1-2.7-2.5l0,0c0-1.4,1.2-2.5,2.7-2.5h226c1.5,0,2.7,1.1,2.7,2.5l0,0
					C339.5,256.6,338.3,257.7,336.8,257.7z"/>
			</g>
			<g>
				<g>
					<polygon class="st11" points="330.7,415.4 337.1,415.4 329.7,258.5 320.9,258.5 					"/>
					<polygon class="st12" points="330.7,415.4 337.1,415.4 329.7,258.5 320.9,258.5 					"/>
				</g>
				<g>
					<polygon class="st11" points="271.9,415.4 265.5,415.4 272.8,258.5 281.7,258.5 					"/>
					<polygon class="st13" points="271.9,415.4 265.5,415.4 272.8,258.5 281.7,258.5 					"/>
				</g>
				<g>
					<polygon class="st11" points="173.2,414.6 179.6,414.6 172.2,257.7 163.4,257.7 					"/>
					<polygon class="st12" points="173.2,414.6 179.6,414.6 172.2,257.7 163.4,257.7 					"/>
				</g>
				<g>
					<polygon class="st11" points="114.4,414.6 108,414.6 115.4,257.7 124.2,257.7 					"/>
					<polygon class="st13" points="114.4,414.6 108,414.6 115.4,257.7 124.2,257.7 					"/>
				</g>
				<g>
					<rect x="117.2" y="266.1" class="st11" width="213.3" height="13.1"/>
					<rect x="117.2" y="266.1" class="st13" width="213.3" height="13.1"/>
				</g>
			</g>
		</g>
		<g>
			<g>
				<path class="st9" d="M180.4,244.7c-0.8,0-1.4,0.6-1.4,1.4v6.1c0,0.8,0.6,1.4,1.4,1.4h45.4c0.3,0,0.5-0.2,0.5-0.5v-7.9
					c0-0.3-0.2-0.5-0.5-0.5H180.4z"/>
				<path class="st10" d="M226.3,245.5h-19c-0.4,0-0.8,0.4-0.8,0.8v5.5c0,0.4,0.4,0.8,0.8,0.8h19V245.5z"/>
				<g>
					<path class="st9" d="M204.2,244.7h-45.8c-0.8,0-1.4,0.6-1.4,1.4v6.1c0,0.8,0.6,1.4,1.4,1.4h45.8c0.8,0,1.4-0.6,1.4-1.4v-6.1
						C205.6,245.3,204.9,244.7,204.2,244.7z"/>
					<path class="st14" d="M204.2,244.7h-45.8c-0.8,0-1.4,0.6-1.4,1.4v6.1c0,0.8,0.6,1.4,1.4,1.4h45.8c0.8,0,1.4-0.6,1.4-1.4v-6.1
						C205.6,245.3,204.9,244.7,204.2,244.7z"/>
					<path class="st15" d="M181.6,244.7h-6.9c-0.3,0-0.6,0.3-0.6,0.6v7.7c0,0.3,0.3,0.6,0.6,0.6h6.9c0.3,0,0.6-0.3,0.6-0.6v-7.7
						C182.2,245,181.9,244.7,181.6,244.7z"/>
					<path class="st15" d="M191.7,244.7h-6.9c-0.3,0-0.6,0.3-0.6,0.6v7.7c0,0.3,0.3,0.6,0.6,0.6h6.9c0.3,0,0.6-0.3,0.6-0.6v-7.7
						C192.2,245,192,244.7,191.7,244.7z"/>
				</g>
			</g>
			<g>
				<path class="st9" d="M172.2,233.8c-0.8,0-1.4,0.6-1.4,1.4v8.1c0,0.8,0.6,1.4,1.4,1.4h49.1c0.3,0,0.5-0.2,0.5-0.5v-10
					c0-0.3-0.2-0.5-0.5-0.5H172.2z"/>
				<path class="st10" d="M221.8,234.7h-22.7c-0.4,0-0.8,0.4-0.8,0.8v7.6c0,0.4,0.4,0.8,0.8,0.8h22.7V234.7z"/>
				<g>
					<path class="st9" d="M196,233.8h-38.5c-0.8,0-1.4,0.6-1.4,1.4v8.1c0,0.8,0.6,1.4,1.4,1.4H196c0.8,0,1.4-0.6,1.4-1.4v-8.1
						C197.4,234.4,196.7,233.8,196,233.8z"/>
					<path class="st13" d="M196,233.8h-38.5c-0.8,0-1.4,0.6-1.4,1.4v8.1c0,0.8,0.6,1.4,1.4,1.4H196c0.8,0,1.4-0.6,1.4-1.4v-8.1
						C197.4,234.4,196.7,233.8,196,233.8z"/>
					<path class="st16" d="M192.3,236h-28.2c-0.5,0-0.9,0.4-0.9,0.9v4.9c0,0.5,0.4,0.9,0.9,0.9h28.2c0.5,0,0.9-0.4,0.9-0.9v-4.9
						C193.2,236.4,192.8,236,192.3,236z"/>
				</g>
			</g>
			<g>
				<path class="st9" d="M186.7,228.6c-0.8,0-1.4,0.4-1.4,0.8v3.6c0,0.5,0.6,0.8,1.4,0.8H232c0.3,0,0.5-0.1,0.5-0.3v-4.7
					c0-0.1-0.2-0.3-0.5-0.3H186.7z"/>
				<path class="st10" d="M232.5,229.1h-19.2c-0.3,0-0.6,0.3-0.6,0.6v3c0,0.3,0.3,0.6,0.6,0.6h19.2V229.1z"/>
				<g>
					<path class="st9" d="M210.7,228.6h-46.5c-0.6,0-1.1,0.5-1.1,1.1v3.1c0,0.6,0.5,1.1,1.1,1.1h46.5c0.6,0,1.1-0.5,1.1-1.1v-3.1
						C211.8,229.1,211.3,228.6,210.7,228.6z"/>
					<path class="st14" d="M210.7,228.6h-46.5c-0.6,0-1.1,0.5-1.1,1.1v3.1c0,0.6,0.5,1.1,1.1,1.1h46.5c0.6,0,1.1-0.5,1.1-1.1v-3.1
						C211.8,229.1,211.3,228.6,210.7,228.6z"/>
					<path class="st15" d="M170.1,228.6h-1.5c-0.1,0-0.2,0.1-0.2,0.2v4.8c0,0.1,0.1,0.2,0.2,0.2h1.5c0.1,0,0.2-0.1,0.2-0.2v-4.8
						C170.3,228.7,170.2,228.6,170.1,228.6z"/>
					<path class="st15" d="M207.8,228.6h-1.4c-0.1,0-0.2,0.1-0.2,0.2v4.8c0,0.1,0.1,0.2,0.2,0.2h1.4c0.1,0,0.2-0.1,0.2-0.2v-4.8
						C208,228.7,207.9,228.6,207.8,228.6z"/>
				</g>
			</g>
			<g>
				<path class="st9" d="M178.5,221.1c-0.8,0-1.4,0.4-1.4,0.8v5.9c0,0.5,0.6,0.8,1.4,0.8h49.1c0.3,0,0.5-0.1,0.5-0.3v-7
					c0-0.1-0.2-0.3-0.5-0.3H178.5z"/>
				<path class="st10" d="M228,221.6h-22.9c-0.3,0-0.6,0.3-0.6,0.6v5.3c0,0.3,0.3,0.6,0.6,0.6H228V221.6z"/>
				<g>
					<path class="st9" d="M202.5,221.1h-39.2c-0.6,0-1.1,0.5-1.1,1.1v5.4c0,0.6,0.5,1.1,1.1,1.1h39.2c0.6,0,1.1-0.5,1.1-1.1v-5.4
						C203.6,221.5,203.1,221.1,202.5,221.1z"/>
					<path class="st17" d="M202.5,221.1h-39.2c-0.6,0-1.1,0.5-1.1,1.1v5.4c0,0.6,0.5,1.1,1.1,1.1h39.2c0.6,0,1.1-0.5,1.1-1.1v-5.4
						C203.6,221.5,203.1,221.1,202.5,221.1z"/>
				</g>
			</g>
		</g>
		<path class="st18" d="M259.9,249.4h-41.3c-0.5,0-0.8,0.4-0.8,0.8l0,0c0,0.5,0.4,0.8,0.8,0.8h41.3c0.5,0,0.8-0.4,0.8-0.8l0,0
			C260.8,249.8,260.4,249.4,259.9,249.4z"/>
		<g>
			<polygon class="st11" points="266.7,248.6 293.8,248.6 296.3,252.2 264.3,252.2 			"/>
			<path d="M308.6,188c0,2-1.6,3.6-3.6,3.6c-2,0-3.6-1.6-3.6-3.6c0-2,1.6-3.6,3.6-3.6C307,184.4,308.6,186,308.6,188z"/>
			<path class="st11" d="M281.2,251c-0.1,0-0.3,0-0.4-0.1c-0.6-0.2-0.9-0.9-0.6-1.5l26.1-61.8c0.2-0.6,0.9-0.9,1.5-0.6
				c0.6,0.2,0.9,0.9,0.6,1.5l-26.1,61.8C282.1,250.8,281.6,251,281.2,251z"/>
			<path class="st11" d="M307.3,189.2c-0.2,0-0.5-0.1-0.7-0.2l-47.5-35.6c-0.5-0.4-0.6-1.1-0.2-1.6c0.4-0.5,1.1-0.6,1.6-0.2
				l47.5,35.6c0.5,0.4,0.6,1.1,0.2,1.6C308,189,307.7,189.2,307.3,189.2z"/>
			<path class="st11" d="M311,188c0,2-1.6,3.6-3.6,3.6s-3.6-1.6-3.6-3.6c0-2,1.6-3.6,3.6-3.6S311,186,311,188z"/>
			<g>
				<circle class="st11" cx="259.9" cy="152.5" r="3.6"/>
				<g>
					<path class="st9" d="M254.8,169.1c-3.2,3.2-8.3,3.2-11.5,0c-3.2-3.2-3.2-8.3,0-11.5c3.2-3.2,8.3-3.2,11.5,0
						C257.9,160.7,257.9,165.9,254.8,169.1z"/>
					<path class="st19" d="M254.8,169.1c-3.2,3.2-8.3,3.2-11.5,0c-3.2-3.2-3.2-8.3,0-11.5c3.2-3.2,8.3-3.2,11.5,0
						C257.9,160.7,257.9,165.9,254.8,169.1z"/>
				</g>
				<path class="st11" d="M259.9,152.5c-6.8-6.8-17.9-6.8-24.7,0l24.7,24.7C266.7,170.4,266.7,159.3,259.9,152.5z"/>
			</g>
		</g>
		<g class="st14">
			<polygon class="st9" points="235.1,152.5 131.3,252.3 237.8,252.3 259.9,177.2 			"/>
			<polygon class="st19" points="235.1,152.5 131.3,252.3 237.8,252.3 259.9,177.2 			"/>
		</g>
	</g>
</g>
</svg>
